# xmcd
#
# Track frame offsets:
# 150
# 22379
# 46015
# 61446
# 77468
# 102469
# 108819
# 149829
# 185195
# 206805
# 231111
# 243130
# 260286
# 283505
# 305489
# 320492
#
# Disc length: 4573 seconds
#
# Revision: 0
# Processed by: cddbd v1.5.2PL0 Copyright (c) Steve Scherf et al.
# Submitted via: Audion 3.0.2 (http://www.panic.com/audion/)
#
DISCID=e911db10
DTITLE=Max McLean - The Listener's Bible
DYEAR=1900
DGENRE=
TTITLE0=Leviticus 7
TTITLE1=Leviticus 8
TTITLE2=Leviticus 9
TTITLE3=Leviticus 10
TTITLE4=Leviticus 11
TTITLE5=Leviticus 12
TTITLE6=Leviticus 13
TTITLE7=Leviticus 14
TTITLE8=Leviticus 15
TTITLE9=Leviticus 16
TTITLE10=Leviticus 17
TTITLE11=Leviticus 18
TTITLE12=Leviticus 19
TTITLE13=Leviticus 20
TTITLE14=Leviticus 21
TTITLE15=Leviticus 22
EXTD=
EXTT0=
EXTT1=
EXTT2=
EXTT3=
EXTT4=
EXTT5=
EXTT6=
EXTT7=
EXTT8=
EXTT9=
EXTT10=
EXTT11=
EXTT12=
EXTT13=
EXTT14=
EXTT15=
PLAYORDER=
